<?xml version="1.0" encoding="UTF-8" standalone="no"?>
<svg width="42px" height="42px" viewBox="0 0 42 42" version="1.1" xmlns="http://www.w3.org/2000/svg" xmlns:xlink="http://www.w3.org/1999/xlink" xmlns:sketch="http://www.bohemiancoding.com/sketch/ns">
    <!-- Generator: Sketch 3.4.2 (15855) - http://www.bohemiancoding.com/sketch -->
    <title>github</title>
    <desc>Created with Sketch.</desc>
    <defs></defs>
    <g id="Page-1" stroke="none" stroke-width="1" fill="none" fill-rule="evenodd" sketch:type="MSPage">
        <g id="Desktop" sketch:type="MSArtboardGroup" transform="translate(-426.000000, -298.000000)">
            <g id="Social" sketch:type="MSLayerGroup" transform="translate(427.000000, 299.000000)">
                <g id="github" sketch:type="MSShapeGroup">
                    <circle id="Oval-2" stroke="#FFFFFF" cx="20" cy="20" r="20"></circle>
                    <path d="M10.0662824,23.3170029 C9.97790586,23.2286263 9.97790586,23.1402498 10.0662824,23.0518732 C10.2430355,22.8751201 10.4639769,22.8088377 10.7291066,22.8530259 C10.9942363,22.8972142 11.1488953,22.9414025 11.1930836,22.9855908 C11.5024015,23.1181556 11.8448551,23.4164322 12.2204441,23.8804204 C12.5960332,24.3444087 12.8943097,24.6647794 13.1152738,24.8415325 C14.1757925,25.7252981 15.2584054,25.7915805 16.3631124,25.0403798 C16.451489,24.7310618 16.5950952,24.4659321 16.7939312,24.2449907 C16.9927671,24.0240493 17.180573,23.8693903 17.3573487,23.7810138 C17.5341245,23.6926372 17.8434424,23.5600724 18.2853026,23.3833192 C16.8270893,23.2507544 15.6450472,22.9966661 14.7391761,22.6210544 C13.8333051,22.2454427 13.1152398,21.7704244 12.5849805,21.1959994 C11.877968,20.4006103 11.4471266,19.3621857 11.2924563,18.0807256 C11.137786,16.7992654 11.2372153,15.628276 11.5907442,14.5677573 C11.8558738,13.9049331 12.2314742,13.3083913 12.7175453,12.7781319 C12.3640391,11.6734249 12.4303215,10.4140589 12.9163926,9.00003394 C14.3304176,9.0884105 15.6118777,9.57448159 16.760773,10.4582472 C18.970187,9.88379955 21.2679776,9.86170541 23.6541447,10.3919648 C23.9634627,10.1710234 24.4384811,9.89484096 25.0791998,9.56341755 C25.7199186,9.23199413 26.5263603,9.04418828 27.4985251,9 C27.6752783,9.48607109 27.7968017,10.0605187 27.8630954,10.7233429 C27.9293892,11.3861671 27.8962536,12.0048031 27.7636888,12.5792507 C28.7800192,13.6397695 29.3102786,15.0537944 29.3544669,16.8213256 C29.3544669,18.2353506 29.1114313,19.4063401 28.6253602,20.3342939 C28.1392891,21.2622478 27.2776177,22.0355427 26.0403458,22.6541787 C25.2007685,23.0518732 24.0960615,23.2949087 22.7262248,23.3832853 C23.3448607,23.6926033 23.7977962,24.012974 24.0850314,24.3443974 C24.3722665,24.6758208 24.5600724,25.1950274 24.6484489,25.9020173 L24.6484489,27.9899305 C24.6484489,27.9899305 24.6705431,28.6638074 24.7147313,30.0115613 C24.8472962,30.2325027 25.0019552,30.4203086 25.1787083,30.5749789 C25.3554614,30.7296492 25.5101204,30.8401199 25.6426852,30.906391 C25.7752501,30.9726621 25.8194384,31.0720914 25.7752501,31.2046788 C25.7310618,31.3372663 25.5543087,31.4035487 25.2449907,31.4035261 C24.4937899,31.4035261 23.8972482,31.1383964 23.4553654,30.608137 C23.3228005,30.3871956 23.2565181,30.122066 23.2565181,29.812748 L23.2565181,26.6311918 C23.2565181,26.2776856 23.1681415,26.0235973 22.9913884,25.868927 C22.8146353,25.7142567 22.6378822,25.6148274 22.461129,25.5706391 L22.461129,29.7464316 C22.461129,30.4976324 22.5495056,30.9837035 22.7262587,31.2046449 C22.9030118,31.4255863 23.0134825,31.6465277 23.0576708,31.8674691 C23.1018591,31.9116574 23.0687236,31.9447929 22.9582642,31.9668758 C22.8478048,31.9889586 22.6599989,31.955823 22.3948466,31.8674691 C21.820399,31.7349043 21.4227044,31.4366277 21.201763,30.9726394 C20.9808216,30.5086512 20.8703509,30.0115274 20.8703509,29.481268 L20.8703509,25.3717579 L20.0086795,25.3717579 L20.0086795,29.481268 C20.0086795,30.0115274 19.8982088,30.5196926 19.6772674,31.0057637 C19.3679494,31.6243996 18.7935018,31.9558117 17.9539244,32 C17.8213596,31.9558117 17.7550772,31.9116234 17.7550772,31.8674352 C17.7992654,31.8232469 17.9318303,31.6023055 18.1527717,31.204611 C18.19696,31.1162344 18.252201,30.9394813 18.3184947,30.6743516 C18.3847884,30.4092219 18.417924,30.0999039 18.4179014,29.7463977 L18.4179014,25.5706052 C18.2411483,25.6147935 18.0754365,25.7142228 17.9207662,25.8688931 C17.766096,26.0235633 17.6887608,26.2776516 17.6887608,26.6311579 L17.6887608,29.8127141 C17.6887608,30.122032 17.6224784,30.3871617 17.4899135,30.6081031 C17.092219,31.1383625 16.4956772,31.4034922 15.7002882,31.4034922 C15.3909702,31.4034922 15.2142171,31.3372097 15.1700288,31.2046449 C15.1258405,31.1162683 15.1368933,31.0389332 15.203187,30.9726394 C15.2694807,30.9063457 15.36891,30.8290106 15.5014749,30.740634 C15.6340397,30.6522574 15.7224163,30.585975 15.7666045,30.5417867 C15.9433577,30.4092219 16.0759225,30.2324688 16.1642991,30.0115274 C16.2968639,29.8347743 16.3299995,29.3707973 16.2637057,28.6195965 C16.197412,27.8683958 16.1863593,27.3823247 16.2305476,27.1613833 C15.0816523,27.5590778 13.9106628,27.3602305 12.7175793,26.5648415 C12.364073,26.2113353 12.0105668,25.70317 11.6570605,25.0403458 C11.3919308,24.5542747 10.8616715,23.9798271 10.0662824,23.3170029 L10.0662824,23.3170029 Z" id="Shape" fill="#FFFFFF"></path>
                </g>
            </g>
        </g>
    </g>
</svg>