<?xml version="1.0" encoding="UTF-8" standalone="no"?>
<svg width="42px" height="42px" viewBox="0 0 42 42" version="1.1" xmlns="http://www.w3.org/2000/svg" xmlns:xlink="http://www.w3.org/1999/xlink" xmlns:sketch="http://www.bohemiancoding.com/sketch/ns">
    <!-- Generator: Sketch 3.4.2 (15855) - http://www.bohemiancoding.com/sketch -->
    <title>medium</title>
    <desc>Created with Sketch.</desc>
    <defs></defs>
    <g id="Page-1" stroke="none" stroke-width="1" fill="none" fill-rule="evenodd" sketch:type="MSPage">
        <g id="Desktop" sketch:type="MSArtboardGroup" transform="translate(-571.000000, -298.000000)">
            <g id="Social" sketch:type="MSLayerGroup" transform="translate(427.000000, 299.000000)">
                <g id="medium" transform="translate(145.000000, 0.000000)" sketch:type="MSShapeGroup">
                    <circle id="Oval-2-Copy-3" stroke="#FFFFFF" cx="20" cy="20" r="20"></circle>
                    <g id="Medium-logo" transform="translate(8.000000, 10.000000)" fill="#FFFFFF">
                        <path d="M16.0767031,16.3582222 L22.7206653,19.5904444 C23.4517776,19.946 24.0444786,19.6971111 24.0444786,19.0344444 L24.0444786,4.48062294 L24.0444786,4.20654297 C24.0444786,4.0925842 24.0444788,3.73213918 24.0444788,3.73213918 C24.0444788,3.66880585 16.0767031,16.3582222 16.0767031,16.3582222 Z" id="Fill-1"></path>
                        <path d="M15.6888779,0.498222222 C15.9022046,0.160888889 16.3745382,0.03 16.7386097,0.207111111 L23.9574578,3.71888889 C24.00428,3.74155556 24.0209533,3.79844444 23.9935452,3.84177778 L16.0767031,16.3582222 L10.8085552,8.04597532 L15.6888779,0.498222222 Z" id="Fill-2" fill-opacity="0.8"></path>
                        <path d="M8.0796919,12.4822224 L8.10915591,12.4822222 L16.0767031,16.3582222 L12.1428279,10.1385723 C10.8039806,8.02178894 8.126286,3.78822222 8.126286,3.78822222 C8.126286,3.78822222 8.09887786,3.75622222 8.07969215,3.74688889 C8.04519187,3.73009903 8.07969194,12.3605923 8.0796919,12.4822224 Z" id="Fill-3" fill-opacity="0.6"></path>
                        <path d="M8.10915591,19.0344444 C8.10915591,19.6944444 7.61261172,19.9928889 7.00597815,19.6977778 L0.803286991,16.6802222 C0.439215492,16.5031111 0.141380338,16.0342222 0.141380338,15.6382222 L0.141380338,0.845111111 C0.141380338,0.317111111 0.53857001,0.0782222222 1.02392254,0.314444444 L8.06621648,3.74022222 C8.09248262,3.75311111 8.10915591,3.77911111 8.10915591,3.80777778 L8.10915591,19.0344444" id="Fill-4" fill-opacity="0.4"></path>
                    </g>
                </g>
            </g>
        </g>
    </g>
</svg>