<?xml version="1.0" encoding="UTF-8" standalone="no"?>
<svg width="42px" height="42px" viewBox="0 0 42 42" version="1.1" xmlns="http://www.w3.org/2000/svg" xmlns:xlink="http://www.w3.org/1999/xlink" xmlns:sketch="http://www.bohemiancoding.com/sketch/ns">
    <!-- Generator: Sketch 3.4.2 (15855) - http://www.bohemiancoding.com/sketch -->
    <title>twitter</title>
    <desc>Created with Sketch.</desc>
    <defs></defs>
    <g id="Page-1" stroke="none" stroke-width="1" fill="none" fill-rule="evenodd" sketch:type="MSPage">
        <g id="Desktop" sketch:type="MSArtboardGroup" transform="translate(-474.000000, -298.000000)">
            <g id="Social" sketch:type="MSLayerGroup" transform="translate(427.000000, 299.000000)">
                <g id="twitter" transform="translate(48.000000, 0.000000)" sketch:type="MSShapeGroup">
                    <circle id="Oval-2-Copy" stroke="#FFFFFF" cx="20" cy="20" r="20"></circle>
                    <path d="M16.0559375,26.1142407 C15.0307158,26.1443943 14.1261084,25.8428585 13.3421154,25.2096333 C12.5581223,24.5764082 11.9701275,23.7622615 11.578131,22.7671934 C11.8495132,22.8275006 12.1812026,22.8425774 12.5731991,22.8124238 C13.08581,22.7822702 13.4627297,22.7370398 13.7039583,22.6767327 C12.1661258,22.1641218 11.0956737,21.3348984 10.4926022,20.1890624 C10.1307592,19.4050694 9.94983774,18.6059995 9.94983774,17.7918529 C10.8242915,18.2441566 11.5329006,18.4552316 12.0756651,18.425078 C10.8393683,17.3697028 10.145836,16.2389436 9.99506811,15.0328004 C9.90460737,14.0678859 10.1006056,13.0275874 10.5830629,11.911905 C12.3319705,13.841734 14.1713388,15.2287987 16.1011679,16.0730989 C17.5485397,16.6761705 18.9808347,16.9777062 20.3980529,16.9777062 C20.2171314,15.5303344 20.4131297,14.3091145 20.9860477,13.3140464 C21.67958,12.2285175 22.6746481,11.5048316 23.971252,11.1429887 C24.8155522,10.9319136 25.6296989,10.954525 26.4136919,11.2108227 C27.197685,11.4671204 27.8610637,11.896805 28.4038281,12.4998766 C29.3385891,12.4094159 30.3638108,12.0324961 31.4794932,11.3691174 C31.0271895,12.6958749 30.3185804,13.6004822 29.3536659,14.0829395 C30.3185804,13.9321716 31.2533414,13.6607894 32.1579487,13.2687929 C32.0071808,13.5703286 31.7207218,13.977402 31.2985717,14.4900128 C30.8764216,15.0026237 30.348734,15.4398505 29.7155088,15.8016935 C29.7456624,15.9524614 29.7607392,16.0881525 29.7607392,16.2087668 C29.8210464,17.8973672 29.489357,19.6915052 28.7656711,21.5911807 C27.5293744,24.6969993 25.6598524,27.0339017 23.1571054,28.6018878 C20.6845119,29.9889525 17.7294611,30.5166401 14.2919531,30.1849507 C12.1208954,29.9437221 10.3569111,29.2652666 9,28.1495841 C11.5027471,28.4511431 13.8547262,27.7726876 16.0559375,26.1142407 Z" id="Shape" fill="#FFFFFF"></path>
                </g>
            </g>
        </g>
    </g>
</svg>